<svg width="533" height="806" viewBox="0 0 533 806" fill="none" xmlns="http://www.w3.org/2000/svg">
<path d="M533 734.338C533 747.068 527.943 759.277 518.941 768.279L495.279 791.941C486.277 800.943 474.068 806 461.338 806H72C45.4904 806 24 784.51 24 758V530.971C24 520.104 19.6835 509.683 12 502C4.31653 494.317 0 483.896 0 473.029V48C0 21.4903 21.4903 0 48 0H309.511C322.242 0 334.451 5.05768 343.453 14.0603L363.331 33.9397C372.333 42.9423 384.542 48 397.273 48H485C511.51 48 533 69.4903 533 96V734.338Z" fill="#D9D9D9"/>
</svg>
